<?xml version="1.0" encoding="UTF-8" standalone="no"?>
<!-- Created with Inkscape (http://www.inkscape.org/) -->

<svg
   xmlns:dc="http://purl.org/dc/elements/1.1/"
   xmlns:cc="http://creativecommons.org/ns#"
   xmlns:rdf="http://www.w3.org/1999/02/22-rdf-syntax-ns#"
   xmlns:svg="http://www.w3.org/2000/svg"
   xmlns="http://www.w3.org/2000/svg"
   xmlns:sodipodi="http://sodipodi.sourceforge.net/DTD/sodipodi-0.dtd"
   xmlns:inkscape="http://www.inkscape.org/namespaces/inkscape"
   version="1.2"
   width="127.62881"
   height="132.0083"
   id="svg2"
   inkscape:version="0.48.4 r9939"
   sodipodi:docname="logo_small.svg">
  <sodipodi:namedview
     pagecolor="#ffffff"
     bordercolor="#666666"
     borderopacity="1"
     objecttolerance="10"
     gridtolerance="10"
     guidetolerance="10"
     inkscape:pageopacity="0"
     inkscape:pageshadow="2"
     inkscape:window-width="1680"
     inkscape:window-height="1028"
     id="namedview31"
     showgrid="false"
     inkscape:zoom="1.7877664"
     inkscape:cx="-3.0287827"
     inkscape:cy="66.00415"
     inkscape:window-x="-8"
     inkscape:window-y="-8"
     inkscape:window-maximized="1"
     inkscape:current-layer="svg2" />
  <defs
     id="defs4" />
  <metadata
     id="metadata7">
    <rdf:RDF>
      <cc:Work
         rdf:about="">
        <dc:format>image/svg+xml</dc:format>
        <dc:type
           rdf:resource="http://purl.org/dc/dcmitype/StillImage" />
        <dc:title />
      </cc:Work>
    </rdf:RDF>
  </metadata>
  <path
     d="m 60.457554,85.963656 c 0.233604,0.06203 0.462009,0.153408 0.70204,0.193714 0.499233,0.08383 1.006692,0.122396 1.524433,0.106485 0.51774,-0.01591 1.045753,-0.08661 1.569419,-0.209888 0.523669,-0.123268 1.014827,-0.292417 1.484673,-0.509024 0.469848,-0.216608 0.918621,-0.480213 1.32689,-0.777679 0.03162,-0.02299 0.05816,-0.05078 0.08937,-0.07423 l -5.008218,-6.013758 -1.68861,7.284359 z m 11.577299,4.600388 -4.88047,-5.870988 c -0.03119,0.02345 -0.05776,0.05122 -0.08937,0.07423 -0.408273,0.297458 -0.857046,0.561062 -1.326888,0.777679 -0.469847,0.216608 -0.961004,0.385756 -1.484675,0.509024 -0.523665,0.123269 -1.051677,0.194026 -1.569418,0.209888 -0.517735,0.01591 -1.0252,-0.02265 -1.524434,-0.106487 -0.240031,-0.04031 -0.468436,-0.131684 -0.702038,-0.193712 l -1.6e-5,-2.5e-5 -1.779598,7.744513"
     id="path4148"
     style="fill:none;stroke:#ffffff;stroke-width:0.41536367;stroke-opacity:1"
     inkscape:connector-curvature="0" />
  <path
     d="M 125.13381,129.51331 C 95.293573,125.33972 112.43367,91.957212 76.633652,73.497247"
     id="path3040"
     style="fill:none;stroke:#27ae60;stroke-width:2.9899981;stroke-linecap:round;stroke-linejoin:miter;stroke-miterlimit:4;stroke-opacity:1;stroke-dasharray:none;stroke-dashoffset:0;marker-start:none"
     inkscape:connector-curvature="0" />
  <rect
     width="47.731449"
     height="47.682224"
     ry="15.484494"
     x="40.73674"
     y="6.5531993"
     transform="matrix(0.76190832,0.64768489,-0.65269843,0.75761782,0,0)"
     id="rect3001"
     style="fill:#2ecc71;fill-opacity:1;stroke:#27ae60;stroke-width:1.99335384;stroke-linejoin:round;stroke-miterlimit:4;stroke-opacity:1;stroke-dasharray:none;stroke-dashoffset:0" />
  <rect
     width="47.731449"
     height="47.682224"
     ry="15.484494"
     x="89.188614"
     y="6.7544355"
     transform="matrix(0.76190832,0.64768489,-0.65269843,0.75761782,0,0)"
     id="rect3001-1"
     style="fill:#2ecc71;fill-opacity:1;stroke:#27ae60;stroke-width:1.99335384;stroke-linejoin:round;stroke-miterlimit:4;stroke-opacity:1;stroke-dasharray:none;stroke-dashoffset:0" />
  <text
     xml:space="preserve"
     style="font-size:15.94665718px;font-style:normal;font-variant:normal;font-weight:normal;font-stretch:normal;text-align:center;line-height:100%;writing-mode:lr-tb;text-anchor:middle;fill:#ffffff;fill-opacity:1;stroke:none;font-family:Arial;-inkscape-font-specification:Arial"
     x="55.727947"
     y="108.79043"
     id="text3057"
     sodipodi:linespacing="100%"
     transform="matrix(0.99791951,-0.10350838,0.10420204,0.99127656,0,0)"><tspan
       sodipodi:role="line"
       x="55.229614"
       y="108.79043"
       id="tspan3059"><tspan
         x="55.727947"
         y="108.79043"
         style="letter-spacing:-0.99666607px;fill:#ffffff;font-family:Arial;-inkscape-font-specification:Arial"
         id="tspan3061">60º</tspan></tspan></text>
  <rect
     width="47.731449"
     height="47.682224"
     ry="15.484494"
     x="89.289375"
     y="-41.949341"
     transform="matrix(0.76190832,0.64768489,-0.65269843,0.75761782,0,0)"
     id="rect3001-4"
     style="fill:#2ecc71;fill-opacity:1;stroke:#27ae60;stroke-width:1.99335384;stroke-linejoin:miter;stroke-miterlimit:4;stroke-opacity:1;stroke-dasharray:none;stroke-dashoffset:0" />
  <rect
     width="47.731449"
     height="47.682224"
     ry="15.484494"
     x="41.341148"
     y="-41.043682"
     transform="matrix(0.76190832,0.64768489,-0.65269843,0.75761782,0,0)"
     id="rect3001-5"
     style="fill:#2ecc71;fill-opacity:1;stroke:#27ae60;stroke-width:1.99335384;stroke-linejoin:round;stroke-miterlimit:4;stroke-opacity:1;stroke-dasharray:none;stroke-dashoffset:0" />
  <text
     xml:space="preserve"
     style="font-size:15.94665718px;font-style:normal;font-variant:normal;font-weight:normal;font-stretch:normal;text-align:center;line-height:100%;writing-mode:lr-tb;text-anchor:middle;fill:#ffffff;fill-opacity:1;stroke:none;font-family:Arial;-inkscape-font-specification:Arial"
     x="89.096725"
     y="77.599907"
     id="text3063"
     sodipodi:linespacing="100%"
     transform="matrix(0.9947695,-0.1300295,0.13090088,0.98814753,0,0)"><tspan
       sodipodi:role="line"
       x="89.096725"
       y="77.599907"
       id="tspan3065"><tspan
         x="89.096725"
         y="77.599907"
         style="font-family:Arial;-inkscape-font-specification:Arial"
         id="tspan3067">%</tspan></tspan></text>
  <text
     xml:space="preserve"
     style="font-size:15.94665623px;font-style:normal;font-variant:normal;font-weight:normal;font-stretch:normal;text-align:center;line-height:100%;writing-mode:lr-tb;text-anchor:middle;fill:#ffffff;fill-opacity:1;stroke:none;font-family:Arial;-inkscape-font-specification:Arial"
     x="12.048368"
     y="72.636803"
     id="text3075"
     sodipodi:linespacing="100%"
     transform="matrix(0.99371058,-0.13778745,0.13871082,0.98709565,0,0)"><tspan
       sodipodi:role="line"
       x="31.14076"
       y="-1.0300906"
       id="tspan3077"><tspan
         x="12.048368"
         y="72.636803"
         style="letter-spacing:-0.99666601px;font-family:Arial;-inkscape-font-specification:Arial"
         id="tspan3079">ƒ(</tspan><tspan
         x="24.257519"
         y="72.636803"
         style="letter-spacing:-0.99666601px;font-family:Arial;-inkscape-font-specification:Arial"
         id="tspan3081">χ</tspan><tspan
         x="31.639093"
         y="72.636803"
         style="letter-spacing:-0.99666601px;font-family:Arial;-inkscape-font-specification:Arial"
         id="tspan3083">)</tspan></tspan></text>
  <text
     xml:space="preserve"
     style="font-size:15.94665718px;font-style:normal;font-variant:normal;font-weight:normal;font-stretch:normal;text-align:center;line-height:100%;writing-mode:lr-tb;text-anchor:middle;fill:#ffffff;fill-opacity:1;stroke:none;font-family:Arial;-inkscape-font-specification:Arial"
     x="56.898407"
     y="41.286186"
     id="text3069"
     sodipodi:linespacing="100%"
     transform="matrix(0.99743822,-0.10798881,0.10871248,0.99079848,0,0)"><tspan
       sodipodi:role="line"
       x="56.898407"
       y="41.286186"
       id="tspan3071"><tspan
         x="56.898407"
         y="41.286186"
         style="letter-spacing:0px;font-family:Arial;-inkscape-font-specification:Arial"
         id="tspan3073">½</tspan></tspan></text>
  <path
     d="m 77.931655,65.466273 a 14.581798,14.48473 0 0 1 -28.67002,-5.307214 14.581798,14.48473 0 1 1 28.67002,5.307214 z"
     id="path3937"
     style="fill:#2ecc71;fill-opacity:1;stroke:none"
     inkscape:connector-curvature="0" />
</svg>
