<?xml version="1.0" encoding="UTF-8" standalone="no"?>
<!-- Created with Inkscape (http://www.inkscape.org/) -->

<svg
   xmlns:dc="http://purl.org/dc/elements/1.1/"
   xmlns:cc="http://creativecommons.org/ns#"
   xmlns:rdf="http://www.w3.org/1999/02/22-rdf-syntax-ns#"
   xmlns:svg="http://www.w3.org/2000/svg"
   xmlns="http://www.w3.org/2000/svg"
   xmlns:xlink="http://www.w3.org/1999/xlink"
   xmlns:sodipodi="http://sodipodi.sourceforge.net/DTD/sodipodi-0.dtd"
   xmlns:inkscape="http://www.inkscape.org/namespaces/inkscape"
   width="2400"
   height="900"
   id="svg2"
   version="1.1"
   inkscape:version="0.48.4 r9939"
   sodipodi:docname="recipes.svg">
  <defs
     id="defs4">
    <linearGradient
       id="linearGradient5101">
      <stop
         style="stop-color:#bbbbbb;stop-opacity:1;"
         offset="0"
         id="stop5103" />
      <stop
         style="stop-color:#ffffff;stop-opacity:0;"
         offset="1"
         id="stop5105" />
    </linearGradient>
    <linearGradient
       id="linearGradient4840">
      <stop
         style="stop-color:#c2bcbb;stop-opacity:1;"
         offset="0"
         id="stop4842" />
      <stop
         style="stop-color:#ffffff;stop-opacity:0;"
         offset="1"
         id="stop4844" />
    </linearGradient>
    <linearGradient
       id="linearGradient4816">
      <stop
         style="stop-color:#ffffff;stop-opacity:1;"
         offset="0"
         id="stop4818" />
      <stop
         id="stop4824"
         offset="0.81944442"
         style="stop-color:#ffffff;stop-opacity:1;" />
      <stop
         style="stop-color:#1abc9c;stop-opacity:1;"
         offset="1"
         id="stop4820" />
    </linearGradient>
    <linearGradient
       inkscape:collect="always"
       xlink:href="#linearGradient4840"
       id="linearGradient4861"
       gradientUnits="userSpaceOnUse"
       x1="-833.82428"
       y1="248.40063"
       x2="-696.68152"
       y2="431.25778" />
    <linearGradient
       inkscape:collect="always"
       xlink:href="#linearGradient5101"
       id="linearGradient5117"
       gradientUnits="userSpaceOnUse"
       x1="400.53378"
       y1="530.67542"
       x2="513.16943"
       y2="686.3963" />
    <filter
       inkscape:collect="always"
       id="filter3900"
       color-interpolation-filters="sRGB">
      <feGaussianBlur
         inkscape:collect="always"
         stdDeviation="14.231667"
         id="feGaussianBlur3902" />
    </filter>
    <filter
       inkscape:collect="always"
       id="filter3912"
       x="-0.13757101"
       width="1.275142"
       y="-0.13757101"
       height="1.275142"
       color-interpolation-filters="sRGB">
      <feGaussianBlur
         inkscape:collect="always"
         stdDeviation="17.255156"
         id="feGaussianBlur3914" />
    </filter>
    <filter
       inkscape:collect="always"
       id="filter3916"
       x="-0.13757101"
       width="1.275142"
       y="-0.13757101"
       height="1.275142"
       color-interpolation-filters="sRGB">
      <feGaussianBlur
         inkscape:collect="always"
         stdDeviation="17.255156"
         id="feGaussianBlur3918" />
    </filter>
    <filter
       inkscape:collect="always"
       id="filter3920"
       x="-0.13757101"
       width="1.275142"
       y="-0.13757101"
       height="1.275142"
       color-interpolation-filters="sRGB">
      <feGaussianBlur
         inkscape:collect="always"
         stdDeviation="17.255156"
         id="feGaussianBlur3922" />
    </filter>
    <filter
       inkscape:collect="always"
       id="filter3924"
       x="-0.13757101"
       width="1.275142"
       y="-0.13757101"
       height="1.275142"
       color-interpolation-filters="sRGB">
      <feGaussianBlur
         inkscape:collect="always"
         stdDeviation="17.255156"
         id="feGaussianBlur3926" />
    </filter>
    <filter
       inkscape:collect="always"
       id="filter3978"
       color-interpolation-filters="sRGB">
      <feGaussianBlur
         inkscape:collect="always"
         stdDeviation="3.0102545"
         id="feGaussianBlur3980" />
    </filter>
    <filter
       inkscape:collect="always"
       id="filter3982"
       color-interpolation-filters="sRGB">
      <feGaussianBlur
         inkscape:collect="always"
         stdDeviation="3.0102545"
         id="feGaussianBlur3984" />
    </filter>
    <filter
       inkscape:collect="always"
       id="filter3986"
       color-interpolation-filters="sRGB">
      <feGaussianBlur
         inkscape:collect="always"
         stdDeviation="3.0102545"
         id="feGaussianBlur3988" />
    </filter>
    <filter
       inkscape:collect="always"
       id="filter3990"
       color-interpolation-filters="sRGB">
      <feGaussianBlur
         inkscape:collect="always"
         stdDeviation="3.0102545"
         id="feGaussianBlur3992" />
    </filter>
    <filter
       inkscape:collect="always"
       id="filter3994"
       color-interpolation-filters="sRGB">
      <feGaussianBlur
         inkscape:collect="always"
         stdDeviation="3.0102545"
         id="feGaussianBlur3996" />
    </filter>
  </defs>
  <sodipodi:namedview
     id="base"
     pagecolor="#ffffff"
     bordercolor="#666666"
     borderopacity="1.0"
     inkscape:pageopacity="0.0"
     inkscape:pageshadow="2"
     inkscape:zoom="0.35"
     inkscape:cx="817.80623"
     inkscape:cy="536.17981"
     inkscape:document-units="px"
     inkscape:current-layer="layer1"
     showgrid="false"
     inkscape:window-width="1600"
     inkscape:window-height="838"
     inkscape:window-x="1672"
     inkscape:window-y="-8"
     inkscape:window-maximized="1" />
  <metadata
     id="metadata7">
    <rdf:RDF>
      <cc:Work
         rdf:about="">
        <dc:format>image/svg+xml</dc:format>
        <dc:type
           rdf:resource="http://purl.org/dc/dcmitype/StillImage" />
        <dc:title />
      </cc:Work>
    </rdf:RDF>
  </metadata>
  <g
     inkscape:label="Layer 1"
     inkscape:groupmode="layer"
     id="layer1"
     transform="translate(0,-152.36218)">
    <path
       transform="matrix(1.1106448,-0.25096739,0.25096739,1.1106448,1299.3791,184.05379)"
       d="m -440,195.21933 c 0,196.45558 -159.25871,355.71429 -355.71429,355.71429 -196.45558,0 -355.71431,-159.25871 -355.71431,-355.71429 0,-196.4555803 159.25873,-355.71429 355.71431,-355.71429 196.45558,0 355.71429,159.2587097 355.71429,355.71429 z"
       sodipodi:ry="355.71429"
       sodipodi:rx="355.71429"
       sodipodi:cy="195.21933"
       sodipodi:cx="-795.71429"
       id="path3894"
       style="fill:#062a23;fill-opacity:0.60784314;stroke:#10705d;stroke-width:4;stroke-miterlimit:4;stroke-opacity:1;stroke-dasharray:none;filter:url(#filter3900)"
       sodipodi:type="arc" />
    <path
       sodipodi:type="arc"
       style="fill:#1abc9c;fill-opacity:1;stroke:#10705d;stroke-width:4;stroke-miterlimit:4;stroke-opacity:1;stroke-dasharray:none"
       id="path4803"
       sodipodi:cx="-795.71429"
       sodipodi:cy="195.21933"
       sodipodi:rx="355.71429"
       sodipodi:ry="355.71429"
       d="m -440,195.21933 c 0,196.45558 -159.25871,355.71429 -355.71429,355.71429 -196.45558,0 -355.71431,-159.25871 -355.71431,-355.71429 0,-196.4555803 159.25873,-355.71429 355.71431,-355.71429 196.45558,0 355.71429,159.2587097 355.71429,355.71429 z"
       transform="matrix(1.1106448,-0.25096739,0.25096739,1.1106448,1295.3791,180.05379)" />
    <path
       style="fill:none;stroke:#000000;stroke-width:4.55458736;stroke-linecap:round;stroke-linejoin:round;stroke-miterlimit:4;stroke-opacity:1;stroke-dasharray:none;stroke-dashoffset:0"
       d="M -616.3299,926.35519 -683.12448,700.12806"
       id="path4719"
       inkscape:connector-curvature="0"
       sodipodi:nodetypes="cc" />
    <path
       style="fill:none;stroke:#000000;stroke-width:4.55458736;stroke-linecap:round;stroke-linejoin:round;stroke-miterlimit:4;stroke-opacity:1;stroke-dasharray:none;stroke-dashoffset:0"
       d="M -330.02393,859.5815 -366.09017,636.7437"
       id="path4721"
       inkscape:connector-curvature="0"
       sodipodi:nodetypes="cc" />
    <path
       style="fill:none;stroke:#000000;stroke-width:4.55458736;stroke-linecap:round;stroke-linejoin:round;stroke-miterlimit:4;stroke-opacity:1;stroke-dasharray:none;stroke-dashoffset:0"
       d="m -647.02944,536.31658 c -165.87181,-19.1206 -213.00819,127.13933 -9.74604,170.82879"
       id="path4723"
       inkscape:connector-curvature="0"
       sodipodi:nodetypes="cc" />
    <path
       style="fill:none;stroke:#000000;stroke-width:4.55458736;stroke-linecap:round;stroke-linejoin:round;stroke-miterlimit:4;stroke-opacity:1;stroke-dasharray:none;stroke-dashoffset:0"
       d="m -676.85206,534.80102 c -17.89173,-84.39756 208.22553,-136.94532 247.2881,-63.22766"
       id="path4725"
       inkscape:connector-curvature="0"
       sodipodi:nodetypes="cc" />
    <path
       style="fill:none;stroke:#000000;stroke-width:4.55458736;stroke-linecap:round;stroke-linejoin:round;stroke-miterlimit:4;stroke-opacity:1;stroke-dasharray:none;stroke-dashoffset:0"
       d="m -462.41954,492.24271 c 139.25274,-98.68108 211.04552,57.26036 74.18227,161.29753"
       id="path4727"
       inkscape:connector-curvature="0"
       sodipodi:nodetypes="cc" />
    <path
       sodipodi:type="arc"
       style="fill:none;stroke:#000000;stroke-width:4;stroke-linecap:round;stroke-linejoin:round;stroke-miterlimit:4;stroke-opacity:1;stroke-dasharray:none;stroke-dashoffset:0"
       id="path4729"
       sodipodi:cx="-775.79718"
       sodipodi:cy="363.94324"
       sodipodi:rx="129.29953"
       sodipodi:ry="35.860416"
       d="m -646.49765,363.94324 c 0,19.80516 -57.88937,35.86041 -129.29953,35.86041 -71.41016,0 -129.29953,-16.05525 -129.29953,-35.86041 0,-19.80516 57.88937,-35.86042 129.29953,-35.86042 71.41016,0 129.29953,16.05526 129.29953,35.86042 z"
       transform="matrix(1.1106448,-0.25096739,0.25096739,1.1106448,296.95391,293.78182)" />
    <path
       transform="matrix(1.122489,-0.25364378,0.25082642,1.110021,299.71331,263.90501)"
       d="m -905.09671,363.94324 c 0,-19.80517 57.88938,-35.86042 129.29954,-35.86042 71.41015,0 129.29952,16.05526 129.29952,35.86042"
       sodipodi:ry="35.860416"
       sodipodi:rx="129.29953"
       sodipodi:cy="363.94324"
       sodipodi:cx="-775.79718"
       id="path4731"
       style="fill:none;stroke:#000000;stroke-width:4;stroke-linecap:round;stroke-linejoin:round;stroke-miterlimit:4;stroke-opacity:1;stroke-dasharray:none;stroke-dashoffset:0"
       sodipodi:type="arc"
       sodipodi:start="3.1415927"
       sodipodi:end="6.2831853"
       sodipodi:open="true" />
    <path
       transform="matrix(1.1106448,-0.25096739,0.25096739,1.1106448,296.95391,293.78182)"
       d="m -646.49765,363.94324 c 0,19.80516 -57.88937,35.86041 -129.29953,35.86041 -71.41016,0 -129.29953,-16.05525 -129.29953,-35.86041 0,-19.80516 57.88937,-35.86042 129.29953,-35.86042 71.41016,0 129.29953,16.05526 129.29953,35.86042 z"
       sodipodi:ry="35.860416"
       sodipodi:rx="129.29953"
       sodipodi:cy="363.94324"
       sodipodi:cx="-775.79718"
       id="path4733"
       style="fill:url(#linearGradient4861);fill-opacity:1;stroke:none"
       sodipodi:type="arc" />
    <g
       id="g3099"
       transform="translate(11.428571,31.428555)">
      <path
         sodipodi:type="arc"
         style="fill:#062a23;fill-opacity:0.56862745;stroke:#10705d;stroke-width:4;stroke-linecap:round;stroke-linejoin:round;stroke-miterlimit:4;stroke-opacity:1;stroke-dasharray:none;stroke-dashoffset:0;filter:url(#filter3912)"
         id="path3904"
         sodipodi:cx="1160.6653"
         sodipodi:cy="250.47191"
         sodipodi:rx="150.51273"
         sodipodi:ry="150.51273"
         d="m 1311.178,250.47191 c 0,83.12588 -67.3868,150.51272 -150.5127,150.51272 -83.1259,0 -150.5127,-67.38684 -150.5127,-150.51272 0,-83.12588 67.3868,-150.512727 150.5127,-150.512727 83.1259,0 150.5127,67.386847 150.5127,150.512727 z"
         transform="matrix(0.82779164,0,0,0.82779164,107.91179,99.961499)" />
      <g
         id="g3060">
        <path
           sodipodi:type="arc"
           style="fill:#1abc9c;fill-opacity:1;stroke:#10705d;stroke-width:4;stroke-linecap:round;stroke-linejoin:round;stroke-miterlimit:4;stroke-opacity:1;stroke-dasharray:none;stroke-dashoffset:0"
           id="path4872"
           sodipodi:cx="1160.6653"
           sodipodi:cy="250.47191"
           sodipodi:rx="150.51273"
           sodipodi:ry="150.51273"
           d="m 1311.178,250.47191 c 0,83.12588 -67.3868,150.51272 -150.5127,150.51272 -83.1259,0 -150.5127,-67.38684 -150.5127,-150.51272 0,-83.12588 67.3868,-150.512727 150.5127,-150.512727 83.1259,0 150.5127,67.386847 150.5127,150.512727 z"
           transform="matrix(0.82779164,0,0,0.82779164,103.91179,95.961499)" />
        <text
           xml:space="preserve"
           style="font-size:303.11520386px;font-style:normal;font-variant:normal;font-weight:normal;font-stretch:normal;text-align:center;line-height:100%;writing-mode:lr-tb;text-anchor:middle;fill:#f4f5f6;fill-opacity:1;stroke:#000000;stroke-width:3.05690169;stroke-miterlimit:4;stroke-opacity:1;stroke-dasharray:none;font-family:League Gothic;-inkscape-font-specification:League Gothic"
           x="1064.6378"
           y="412.11703"
           id="text4884"
           sodipodi:linespacing="100%"><tspan
             sodipodi:role="line"
             x="1064.6378"
             y="412.11703"
             id="tspan4886"
             style="fill:#f4f5f6;fill-opacity:1;stroke-width:3.05690169"><tspan
               x="1064.6378"
               y="412.11703"
               style="fill:#f4f5f6;fill-opacity:1;stroke:#000000;stroke-width:3.05690169;stroke-miterlimit:4;stroke-opacity:1;stroke-dasharray:none"
               id="tspan4888">+</tspan></tspan></text>
        <path
           transform="matrix(0.47427006,0,0,0.47427006,481.94799,148.56634)"
           d="m 1311.178,250.47191 c 0,83.12588 -67.3868,150.51272 -150.5127,150.51272 -83.1259,0 -150.5127,-67.38684 -150.5127,-150.51272 0,-83.12588 67.3868,-150.512727 150.5127,-150.512727 83.1259,0 150.5127,67.386847 150.5127,150.512727 z"
           sodipodi:ry="150.51273"
           sodipodi:rx="150.51273"
           sodipodi:cy="250.47191"
           sodipodi:cx="1160.6653"
           id="path4874"
           style="fill:#ffffff;fill-opacity:0.29019608;stroke:none;filter:url(#filter3982)"
           sodipodi:type="arc" />
      </g>
    </g>
    <g
       id="g3091"
       transform="translate(62.520151,39.971973)">
      <path
         transform="matrix(0.82779164,0,0,0.82779164,423.07938,273.25239)"
         d="m 1311.178,250.47191 c 0,83.12588 -67.3868,150.51272 -150.5127,150.51272 -83.1259,0 -150.5127,-67.38684 -150.5127,-150.51272 0,-83.12588 67.3868,-150.512727 150.5127,-150.512727 83.1259,0 150.5127,67.386847 150.5127,150.512727 z"
         sodipodi:ry="150.51273"
         sodipodi:rx="150.51273"
         sodipodi:cy="250.47191"
         sodipodi:cx="1160.6653"
         id="path3906"
         style="fill:#062a23;fill-opacity:0.56862745;stroke:#10705d;stroke-width:4;stroke-linecap:round;stroke-linejoin:round;stroke-miterlimit:4;stroke-opacity:1;stroke-dasharray:none;stroke-dashoffset:0;filter:url(#filter3916)"
         sodipodi:type="arc" />
      <g
         id="g3054">
        <path
           transform="matrix(0.82779164,0,0,0.82779164,419.07938,269.25239)"
           d="m 1311.178,250.47191 c 0,83.12588 -67.3868,150.51272 -150.5127,150.51272 -83.1259,0 -150.5127,-67.38684 -150.5127,-150.51272 0,-83.12588 67.3868,-150.512727 150.5127,-150.512727 83.1259,0 150.5127,67.386847 150.5127,150.512727 z"
           sodipodi:ry="150.51273"
           sodipodi:rx="150.51273"
           sodipodi:cy="250.47191"
           sodipodi:cx="1160.6653"
           id="path4899"
           style="fill:#1abc9c;fill-opacity:1;stroke:#10705d;stroke-width:4;stroke-linecap:round;stroke-linejoin:round;stroke-miterlimit:4;stroke-opacity:1;stroke-dasharray:none;stroke-dashoffset:0"
           sodipodi:type="arc" />
        <text
           sodipodi:linespacing="100%"
           id="text4901"
           y="413.48776"
           x="1472.4841"
           style="font-size:283.43414307px;font-style:normal;font-variant:normal;font-weight:normal;font-stretch:normal;text-align:center;line-height:100%;writing-mode:lr-tb;text-anchor:middle;fill:#f4f5f6;fill-opacity:1;stroke:#000000;stroke-width:3.1168611;stroke-miterlimit:4;stroke-opacity:1;stroke-dasharray:none;font-family:League Gothic;-inkscape-font-specification:League Gothic"
           xml:space="preserve"
           transform="scale(0.93717497,1.0670366)"><tspan
             id="tspan4903"
             y="413.48776"
             x="1472.4841"
             sodipodi:role="line"
             style="fill:#f4f5f6;fill-opacity:1;stroke-width:3.1168611">_</tspan></text>
        <path
           sodipodi:type="arc"
           style="fill:#ffffff;fill-opacity:0.29019608;stroke:none;filter:url(#filter3986)"
           id="path4907"
           sodipodi:cx="1160.6653"
           sodipodi:cy="250.47191"
           sodipodi:rx="150.51273"
           sodipodi:ry="150.51273"
           d="m 1311.178,250.47191 c 0,83.12588 -67.3868,150.51272 -150.5127,150.51272 -83.1259,0 -150.5127,-67.38684 -150.5127,-150.51272 0,-83.12588 67.3868,-150.512727 150.5127,-150.512727 83.1259,0 150.5127,67.386847 150.5127,150.512727 z"
           transform="matrix(0.47427006,0,0,0.47427006,797.11558,321.85724)" />
      </g>
    </g>
    <g
       id="g3082"
       transform="translate(688.3884,19.220938)">
      <path
         sodipodi:type="arc"
         style="fill:#062a23;fill-opacity:0.56862745;stroke:#10705d;stroke-width:4;stroke-linecap:round;stroke-linejoin:round;stroke-miterlimit:4;stroke-opacity:1;stroke-dasharray:none;stroke-dashoffset:0;filter:url(#filter3920)"
         id="path3908"
         sodipodi:cx="1160.6653"
         sodipodi:cy="250.47191"
         sodipodi:rx="150.51273"
         sodipodi:ry="150.51273"
         d="m 1311.178,250.47191 c 0,83.12588 -67.3868,150.51272 -150.5127,150.51272 -83.1259,0 -150.5127,-67.38684 -150.5127,-150.51272 0,-83.12588 67.3868,-150.512727 150.5127,-150.512727 83.1259,0 150.5127,67.386847 150.5127,150.512727 z"
         transform="matrix(0.82779164,0,0,0.82779164,163.47018,475.83775)" />
      <g
         id="g3067">
        <path
           sodipodi:type="arc"
           style="fill:#1abc9c;fill-opacity:1;stroke:#10705d;stroke-width:4;stroke-linecap:round;stroke-linejoin:round;stroke-miterlimit:4;stroke-opacity:1;stroke-dasharray:none;stroke-dashoffset:0"
           id="path4911"
           sodipodi:cx="1160.6653"
           sodipodi:cy="250.47191"
           sodipodi:rx="150.51273"
           sodipodi:ry="150.51273"
           d="m 1311.178,250.47191 c 0,83.12588 -67.3868,150.51272 -150.5127,150.51272 -83.1259,0 -150.5127,-67.38684 -150.5127,-150.51272 0,-83.12588 67.3868,-150.512727 150.5127,-150.512727 83.1259,0 150.5127,67.386847 150.5127,150.512727 z"
           transform="matrix(0.82779164,0,0,0.82779164,159.47018,471.83775)" />
        <text
           xml:space="preserve"
           style="font-size:242.33750916px;font-style:normal;font-variant:normal;font-weight:normal;font-stretch:normal;text-align:center;line-height:100%;writing-mode:lr-tb;text-anchor:middle;fill:#f4f5f6;fill-opacity:1;stroke:#000000;stroke-width:3.21756268;stroke-miterlimit:4;stroke-opacity:1;stroke-dasharray:none;font-family:League Gothic;-inkscape-font-specification:League Gothic"
           x="804.85907"
           y="1011.7087"
           id="text4913"
           sodipodi:linespacing="100%"
           transform="scale(1.3920248,0.718378)"><tspan
             sodipodi:role="line"
             x="804.85907"
             y="1011.7087"
             id="tspan4915"
             style="fill:#f4f5f6;fill-opacity:1;stroke-width:3.21756268">x<tspan
   x="804.85907"
   y="1011.7087"
   style="fill:#f4f5f6;fill-opacity:1;stroke:#000000;stroke-width:3.21756268;stroke-miterlimit:4;stroke-opacity:1;stroke-dasharray:none"
   id="tspan4917" /></tspan></text>
        <path
           transform="matrix(0.47427006,0,0,0.47427006,537.50638,524.4426)"
           d="m 1311.178,250.47191 c 0,83.12588 -67.3868,150.51272 -150.5127,150.51272 -83.1259,0 -150.5127,-67.38684 -150.5127,-150.51272 0,-83.12588 67.3868,-150.512727 150.5127,-150.512727 83.1259,0 150.5127,67.386847 150.5127,150.512727 z"
           sodipodi:ry="150.51273"
           sodipodi:rx="150.51273"
           sodipodi:cy="250.47191"
           sodipodi:cx="1160.6653"
           id="path4919"
           style="fill:#ffffff;fill-opacity:0.29019608;stroke:none;filter:url(#filter3994)"
           sodipodi:type="arc" />
      </g>
    </g>
    <g
       id="g3074"
       transform="translate(748.57146,8.5714286)">
      <path
         transform="matrix(0.82779164,0,0,0.82779164,469.54639,668.32156)"
         d="m 1311.178,250.47191 c 0,83.12588 -67.3868,150.51272 -150.5127,150.51272 -83.1259,0 -150.5127,-67.38684 -150.5127,-150.51272 0,-83.12588 67.3868,-150.512727 150.5127,-150.512727 83.1259,0 150.5127,67.386847 150.5127,150.512727 z"
         sodipodi:ry="150.51273"
         sodipodi:rx="150.51273"
         sodipodi:cy="250.47191"
         sodipodi:cx="1160.6653"
         id="path3910"
         style="fill:#062a23;fill-opacity:0.56862745;stroke:#10705d;stroke-width:4;stroke-linecap:round;stroke-linejoin:round;stroke-miterlimit:4;stroke-opacity:1;stroke-dasharray:none;stroke-dashoffset:0;filter:url(#filter3924)"
         sodipodi:type="arc" />
      <path
         sodipodi:type="arc"
         style="fill:#1abc9c;fill-opacity:1;stroke:#10705d;stroke-width:4;stroke-linecap:round;stroke-linejoin:round;stroke-miterlimit:4;stroke-opacity:1;stroke-dasharray:none;stroke-dashoffset:0"
         id="path4923"
         sodipodi:cx="1160.6653"
         sodipodi:cy="250.47191"
         sodipodi:rx="150.51273"
         sodipodi:ry="150.51273"
         d="m 1311.178,250.47191 c 0,83.12588 -67.3868,150.51272 -150.5127,150.51272 -83.1259,0 -150.5127,-67.38684 -150.5127,-150.51272 0,-83.12588 67.3868,-150.512727 150.5127,-150.512727 83.1259,0 150.5127,67.386847 150.5127,150.512727 z"
         transform="matrix(0.82779164,0,0,0.82779164,465.54639,664.32156)" />
      <text
         transform="scale(1.2726712,0.78574891)"
         xml:space="preserve"
         style="font-size:203.72192383px;font-style:normal;font-variant:normal;font-weight:normal;font-stretch:normal;text-align:center;line-height:100%;writing-mode:lr-tb;text-anchor:middle;fill:#f4f5f6;fill-opacity:1;stroke:#000000;stroke-width:3.06385136;stroke-miterlimit:4;stroke-opacity:1;stroke-dasharray:none;font-family:League Gothic;-inkscape-font-specification:League Gothic"
         x="1120.6974"
         y="1172.5701"
         id="text4925"
         sodipodi:linespacing="100%"><tspan
           style="fill:#f4f5f6;fill-opacity:1;stroke-width:3.06385136"
           sodipodi:role="line"
           x="1120.6974"
           y="1172.5701"
           id="tspan4927">/<tspan
   x="1120.6974"
   y="1172.5701"
   style="fill:#f4f5f6;fill-opacity:1;stroke:#000000;stroke-width:3.06385136;stroke-miterlimit:4;stroke-opacity:1;stroke-dasharray:none"
   id="tspan4929" /></tspan></text>
      <path
         transform="matrix(0.47427006,0,0,0.47427006,843.58259,716.92641)"
         d="m 1311.178,250.47191 c 0,83.12588 -67.3868,150.51272 -150.5127,150.51272 -83.1259,0 -150.5127,-67.38684 -150.5127,-150.51272 0,-83.12588 67.3868,-150.512727 150.5127,-150.512727 83.1259,0 150.5127,67.386847 150.5127,150.512727 z"
         sodipodi:ry="150.51273"
         sodipodi:rx="150.51273"
         sodipodi:cy="250.47191"
         sodipodi:cx="1160.6653"
         id="path4931"
         style="fill:#ffffff;fill-opacity:0.29019608;stroke:none;filter:url(#filter3990)"
         sodipodi:type="arc" />
    </g>
    <path
       style="fill:#f4f5f6;fill-opacity:1;stroke:#000000;stroke-width:3.35488272;stroke-linejoin:bevel;stroke-miterlimit:4;stroke-opacity:1"
       d="m 261.34691,505.40967 347.90684,-93.22135 c 0,0 34.80594,322.48912 71.19391,360.96653 L 386.56795,852.99071 C 401.87513,799.16886 261.34691,505.40967 261.34691,505.40967 z"
       id="rect4996"
       inkscape:connector-curvature="0"
       sodipodi:nodetypes="ccccc" />
    <path
       sodipodi:type="arc"
       style="fill:#f4f5f6;fill-opacity:1;stroke:#000000;stroke-width:4;stroke-linecap:round;stroke-linejoin:round;stroke-miterlimit:4;stroke-opacity:1;stroke-dasharray:none;stroke-dashoffset:0"
       id="path4999"
       sodipodi:cx="338.90619"
       sodipodi:cy="228.75363"
       sodipodi:rx="96.469566"
       sodipodi:ry="96.469566"
       d="m 338.90619,325.2232 c -53.27867,0 -96.46957,-43.1909 -96.46957,-96.46957 0,-53.27867 43.1909,-96.46956 96.46957,-96.46956 53.27867,-1e-5 96.46956,43.19089 96.46957,96.46956 0,0 0,0 0,0"
       transform="matrix(0.8112185,-0.21736535,0.21736535,0.8112185,-22.692554,397.09574)"
       sodipodi:start="1.5707963"
       sodipodi:end="6.2831853"
       sodipodi:open="true" />
    <path
       transform="matrix(0.8112185,-0.21736535,0.21736535,0.8112185,247.42746,325.15645)"
       sodipodi:type="arc"
       style="fill:#f4f5f6;fill-opacity:1;stroke:#000000;stroke-width:4;stroke-linecap:round;stroke-linejoin:round;stroke-miterlimit:4;stroke-opacity:1;stroke-dasharray:none;stroke-dashoffset:0"
       id="path4999-9"
       sodipodi:cx="338.90619"
       sodipodi:cy="228.75363"
       sodipodi:rx="96.469566"
       sodipodi:ry="96.469566"
       d="m 242.43662,228.75363 c 1e-5,-53.27867 43.1909,-96.46957 96.46957,-96.46956 53.27867,0 96.46957,43.1909 96.46957,96.46957 -1e-5,53.27866 -43.1909,96.46956 -96.46957,96.46956"
       sodipodi:start="3.1415927"
       sodipodi:end="7.8539816"
       sodipodi:open="true" />
    <path
       transform="matrix(1.1946764,-0.32011258,0.30318646,1.1315073,-44.402455,326.19766)"
       sodipodi:type="arc"
       style="fill:#f4f5f6;fill-opacity:1;stroke:#000000;stroke-width:2.79089856;stroke-linecap:round;stroke-linejoin:round;stroke-miterlimit:4;stroke-opacity:1;stroke-dasharray:none;stroke-dashoffset:0"
       id="path4999-4"
       sodipodi:cx="338.90619"
       sodipodi:cy="228.75363"
       sodipodi:rx="96.469566"
       sodipodi:ry="96.469566"
       d="m 242.43662,228.75363 c 1e-5,-53.27867 43.1909,-96.46957 96.46957,-96.46956 53.27867,0 96.46956,43.19089 96.46957,96.46956"
       sodipodi:start="3.1415927"
       sodipodi:end="6.2831853"
       sodipodi:open="true" />
    <path
       transform="matrix(1.6274712,0,0,1.6274712,-1538.0407,87.410202)"
       d="m 1311.178,250.47191 c 0,83.12588 -67.3868,150.51272 -150.5127,150.51272 -83.1259,0 -150.5127,-67.38684 -150.5127,-150.51272 0,-83.12588 67.3868,-150.512727 150.5127,-150.512727 83.1259,0 150.5127,67.386847 150.5127,150.512727 z"
       sodipodi:ry="150.51273"
       sodipodi:rx="150.51273"
       sodipodi:cy="250.47191"
       sodipodi:cx="1160.6653"
       id="path4919-4"
       style="fill:#ffffff;fill-opacity:0.29019608;stroke:none;filter:url(#filter3978)"
       sodipodi:type="arc" />
    <path
       sodipodi:type="arc"
       style="fill:#f4f5f6;fill-opacity:1;stroke:#000000;stroke-width:4;stroke-linecap:round;stroke-linejoin:round;stroke-miterlimit:4;stroke-opacity:1;stroke-dasharray:none;stroke-dashoffset:0"
       id="path5026"
       sodipodi:cx="478.57144"
       sodipodi:cy="610.71429"
       sodipodi:rx="152.85715"
       sodipodi:ry="32.142857"
       d="m 631.42859,610.71429 c 0,17.75201 -68.43648,32.14286 -152.85715,32.14286 -84.42067,0 -152.85715,-14.39085 -152.85715,-32.14286 0,-17.75201 68.43648,-32.14285 152.85715,-32.14285 84.42067,0 152.85715,14.39084 152.85715,32.14285 z"
       transform="matrix(0.96116859,-0.25754435,0.25885756,0.96606956,-83.778386,347.13374)" />
    <path
       transform="matrix(0.94287813,-0.2648425,0.28624618,0.86092763,-92.823147,413.94526)"
       d="m 631.42859,610.71429 c 0,17.75201 -68.43648,32.14286 -152.85715,32.14286 -84.42067,0 -152.85715,-14.39085 -152.85715,-32.14286 0,-17.75201 68.43648,-32.14285 152.85715,-32.14285 84.42067,0 152.85715,14.39084 152.85715,32.14285 z"
       sodipodi:ry="32.142857"
       sodipodi:rx="152.85715"
       sodipodi:cy="610.71429"
       sodipodi:cx="478.57144"
       id="path5091"
       style="fill:url(#linearGradient5117);fill-opacity:1;stroke:none"
       sodipodi:type="arc" />
  </g>
</svg>
