<?xml version="1.0" encoding="UTF-8" standalone="no"?>
<!-- Created with Inkscape (http://www.inkscape.org/) -->

<svg
   xmlns:dc="http://purl.org/dc/elements/1.1/"
   xmlns:cc="http://creativecommons.org/ns#"
   xmlns:rdf="http://www.w3.org/1999/02/22-rdf-syntax-ns#"
   xmlns:svg="http://www.w3.org/2000/svg"
   xmlns="http://www.w3.org/2000/svg"
   xmlns:xlink="http://www.w3.org/1999/xlink"
   xmlns:sodipodi="http://sodipodi.sourceforge.net/DTD/sodipodi-0.dtd"
   xmlns:inkscape="http://www.inkscape.org/namespaces/inkscape"
   width="1600"
   height="900"
   id="svg2"
   version="1.1"
   inkscape:version="0.48.4 r9939"
   sodipodi:docname="recipes.svg">
  <defs
     id="defs4">
    <linearGradient
       id="linearGradient5101">
      <stop
         style="stop-color:#bbbbbb;stop-opacity:1;"
         offset="0"
         id="stop5103" />
      <stop
         style="stop-color:#ffffff;stop-opacity:0;"
         offset="1"
         id="stop5105" />
    </linearGradient>
    <linearGradient
       id="linearGradient4840">
      <stop
         style="stop-color:#c2bcbb;stop-opacity:1;"
         offset="0"
         id="stop4842" />
      <stop
         style="stop-color:#ffffff;stop-opacity:0;"
         offset="1"
         id="stop4844" />
    </linearGradient>
    <linearGradient
       id="linearGradient4816">
      <stop
         style="stop-color:#ffffff;stop-opacity:1;"
         offset="0"
         id="stop4818" />
      <stop
         id="stop4824"
         offset="0.81944442"
         style="stop-color:#ffffff;stop-opacity:1;" />
      <stop
         style="stop-color:#1abc9c;stop-opacity:1;"
         offset="1"
         id="stop4820" />
    </linearGradient>
    <linearGradient
       inkscape:collect="always"
       xlink:href="#linearGradient4840"
       id="linearGradient4861"
       gradientUnits="userSpaceOnUse"
       x1="-833.82428"
       y1="248.40063"
       x2="-696.68152"
       y2="431.25778" />
    <filter
       inkscape:collect="always"
       id="filter5035">
      <feGaussianBlur
         inkscape:collect="always"
         stdDeviation="1.5051273"
         id="feGaussianBlur5037" />
    </filter>
    <linearGradient
       inkscape:collect="always"
       xlink:href="#linearGradient5101"
       id="linearGradient5107"
       x1="400.53378"
       y1="530.67542"
       x2="513.16943"
       y2="686.3963"
       gradientUnits="userSpaceOnUse" />
    <linearGradient
       inkscape:collect="always"
       xlink:href="#linearGradient5101"
       id="linearGradient5113"
       gradientUnits="userSpaceOnUse"
       x1="400.53378"
       y1="530.67542"
       x2="513.16943"
       y2="686.3963" />
    <linearGradient
       inkscape:collect="always"
       xlink:href="#linearGradient5101"
       id="linearGradient5117"
       gradientUnits="userSpaceOnUse"
       x1="400.53378"
       y1="530.67542"
       x2="513.16943"
       y2="686.3963" />
  </defs>
  <sodipodi:namedview
     id="base"
     pagecolor="#ffffff"
     bordercolor="#666666"
     borderopacity="1.0"
     inkscape:pageopacity="0.0"
     inkscape:pageshadow="2"
     inkscape:zoom="0.98994949"
     inkscape:cx="1047.7701"
     inkscape:cy="474.98475"
     inkscape:document-units="px"
     inkscape:current-layer="layer1"
     showgrid="false"
     inkscape:window-width="1600"
     inkscape:window-height="838"
     inkscape:window-x="1672"
     inkscape:window-y="-8"
     inkscape:window-maximized="1" />
  <metadata
     id="metadata7">
    <rdf:RDF>
      <cc:Work
         rdf:about="">
        <dc:format>image/svg+xml</dc:format>
        <dc:type
           rdf:resource="http://purl.org/dc/dcmitype/StillImage" />
        <dc:title></dc:title>
      </cc:Work>
    </rdf:RDF>
  </metadata>
  <g
     inkscape:label="Layer 1"
     inkscape:groupmode="layer"
     id="layer1"
     transform="translate(0,-152.36218)">
    <path
       sodipodi:type="arc"
       style="fill:#1abc9c;fill-opacity:1;stroke:#10705d;stroke-width:4;stroke-miterlimit:4;stroke-opacity:1;stroke-dasharray:none"
       id="path4803"
       sodipodi:cx="-795.71429"
       sodipodi:cy="195.21933"
       sodipodi:rx="355.71429"
       sodipodi:ry="355.71429"
       d="m -440,195.21933 a 355.71429,355.71429 0 1 1 -711.4286,0 355.71429,355.71429 0 1 1 711.4286,0 z"
       transform="matrix(1.1106448,-0.25096739,0.25096739,1.1106448,1295.3791,180.05379)" />
    <g
       id="g4986"
       transform="translate(-937.42156,-1034.3962)">
      <path
         sodipodi:nodetypes="cc"
         inkscape:connector-curvature="0"
         id="path4719"
         d="M 369.57889,833.42115 302.78431,607.19402"
         style="fill:none;stroke:#000000;stroke-width:4.55458736;stroke-linecap:round;stroke-linejoin:round;stroke-miterlimit:4;stroke-opacity:1;stroke-dasharray:none;stroke-dashoffset:0" />
      <path
         sodipodi:nodetypes="cc"
         inkscape:connector-curvature="0"
         id="path4721"
         d="M 655.88486,766.64746 619.81862,543.80966"
         style="fill:none;stroke:#000000;stroke-width:4.55458736;stroke-linecap:round;stroke-linejoin:round;stroke-miterlimit:4;stroke-opacity:1;stroke-dasharray:none;stroke-dashoffset:0" />
      <path
         sodipodi:nodetypes="cc"
         inkscape:connector-curvature="0"
         id="path4723"
         d="M 338.87935,443.38254 C 173.00754,424.26194 125.87116,570.52187 329.13331,614.21133"
         style="fill:none;stroke:#000000;stroke-width:4.55458736;stroke-linecap:round;stroke-linejoin:round;stroke-miterlimit:4;stroke-opacity:1;stroke-dasharray:none;stroke-dashoffset:0" />
      <path
         sodipodi:nodetypes="cc"
         inkscape:connector-curvature="0"
         id="path4725"
         d="M 309.05673,441.86698 C 291.165,357.46942 517.28226,304.92166 556.34483,378.63932"
         style="fill:none;stroke:#000000;stroke-width:4.55458736;stroke-linecap:round;stroke-linejoin:round;stroke-miterlimit:4;stroke-opacity:1;stroke-dasharray:none;stroke-dashoffset:0" />
      <path
         sodipodi:nodetypes="cc"
         inkscape:connector-curvature="0"
         id="path4727"
         d="m 523.48925,399.30867 c 139.25274,-98.68108 211.04552,57.26036 74.18227,161.29753"
         style="fill:none;stroke:#000000;stroke-width:4.55458736;stroke-linecap:round;stroke-linejoin:round;stroke-miterlimit:4;stroke-opacity:1;stroke-dasharray:none;stroke-dashoffset:0" />
      <path
         transform="matrix(1.1106448,-0.25096739,0.25096739,1.1106448,1282.8627,200.84778)"
         d="m -646.49765,363.94324 c 0,19.80516 -57.88937,35.86041 -129.29953,35.86041 -71.41016,0 -129.29953,-16.05525 -129.29953,-35.86041 0,-19.80516 57.88937,-35.86042 129.29953,-35.86042 71.41016,0 129.29953,16.05526 129.29953,35.86042 z"
         sodipodi:ry="35.860416"
         sodipodi:rx="129.29953"
         sodipodi:cy="363.94324"
         sodipodi:cx="-775.79718"
         id="path4729"
         style="fill:none;stroke:#000000;stroke-width:4;stroke-linecap:round;stroke-linejoin:round;stroke-miterlimit:4;stroke-opacity:1;stroke-dasharray:none;stroke-dashoffset:0"
         sodipodi:type="arc" />
      <path
         sodipodi:open="true"
         sodipodi:end="6.2831853"
         sodipodi:start="3.1415927"
         sodipodi:type="arc"
         style="fill:none;stroke:#000000;stroke-width:4;stroke-linecap:round;stroke-linejoin:round;stroke-miterlimit:4;stroke-opacity:1;stroke-dasharray:none;stroke-dashoffset:0"
         id="path4731"
         sodipodi:cx="-775.79718"
         sodipodi:cy="363.94324"
         sodipodi:rx="129.29953"
         sodipodi:ry="35.860416"
         d="m -905.09671,363.94324 c 0,-19.80517 57.88938,-35.86042 129.29954,-35.86042 71.41015,0 129.29952,16.05526 129.29952,35.86042"
         transform="matrix(1.122489,-0.25364378,0.25082642,1.110021,1285.6221,170.97097)" />
      <path
         sodipodi:type="arc"
         style="fill:url(#linearGradient4861);fill-opacity:1;stroke:none"
         id="path4733"
         sodipodi:cx="-775.79718"
         sodipodi:cy="363.94324"
         sodipodi:rx="129.29953"
         sodipodi:ry="35.860416"
         d="m -646.49765,363.94324 c 0,19.80516 -57.88937,35.86041 -129.29953,35.86041 -71.41016,0 -129.29953,-16.05525 -129.29953,-35.86041 0,-19.80516 57.88937,-35.86042 129.29953,-35.86042 71.41016,0 129.29953,16.05526 129.29953,35.86042 z"
         transform="matrix(1.1106448,-0.25096739,0.25096739,1.1106448,1282.8627,200.84778)" />
    </g>
    <g
       id="g5123"
       transform="translate(-76.771593,-12.121831)">
      <path
         transform="matrix(0.82779164,0,0,0.82779164,180.68338,108.08333)"
         d="m 1311.178,250.47191 c 0,83.12588 -67.3868,150.51272 -150.5127,150.51272 -83.1259,0 -150.5127,-67.38684 -150.5127,-150.51272 0,-83.12588 67.3868,-150.512727 150.5127,-150.512727 83.1259,0 150.5127,67.386847 150.5127,150.512727 z"
         sodipodi:ry="150.51273"
         sodipodi:rx="150.51273"
         sodipodi:cy="250.47191"
         sodipodi:cx="1160.6653"
         id="path4872"
         style="fill:#1abc9c;fill-opacity:1;stroke:#10705d;stroke-width:4;stroke-linecap:round;stroke-linejoin:round;stroke-miterlimit:4;stroke-opacity:1;stroke-dasharray:none;stroke-dashoffset:0"
         sodipodi:type="arc" />
      <text
         sodipodi:linespacing="100%"
         id="text4884"
         y="424.23886"
         x="1141.4094"
         style="font-size:303.11520386px;font-style:normal;font-variant:normal;font-weight:normal;font-stretch:normal;text-align:center;line-height:100%;writing-mode:lr-tb;text-anchor:middle;fill:#ffffff;fill-opacity:1;stroke:#000000;stroke-width:3.05690169;stroke-miterlimit:4;stroke-opacity:1;stroke-dasharray:none;font-family:League Gothic;-inkscape-font-specification:League Gothic"
         xml:space="preserve"><tspan
           style="stroke-width:3.05690169"
           id="tspan4886"
           y="424.23886"
           x="1141.4094"
           sodipodi:role="line"><tspan
             id="tspan4888"
             style="fill:#ffffff;fill-opacity:1;stroke:#000000;stroke-width:3.05690169;stroke-miterlimit:4;stroke-opacity:1;stroke-dasharray:none"
             y="424.23886"
             x="1141.4094">+</tspan></tspan></text>
      <path
         sodipodi:type="arc"
         style="fill:#ffffff;fill-opacity:0.42745098;stroke:none"
         id="path4874"
         sodipodi:cx="1160.6653"
         sodipodi:cy="250.47191"
         sodipodi:rx="150.51273"
         sodipodi:ry="150.51273"
         d="m 1311.178,250.47191 c 0,83.12588 -67.3868,150.51272 -150.5127,150.51272 -83.1259,0 -150.5127,-67.38684 -150.5127,-150.51272 0,-83.12588 67.3868,-150.512727 150.5127,-150.512727 83.1259,0 150.5127,67.386847 150.5127,150.512727 z"
         transform="matrix(0.47427006,0,0,0.47427006,556.71958,158.68817)" />
    </g>
    <g
       id="g5130"
       transform="translate(-29.294424,-26.263966)">
      <path
         sodipodi:type="arc"
         style="fill:#1abc9c;fill-opacity:1;stroke:#10705d;stroke-width:4;stroke-linecap:round;stroke-linejoin:round;stroke-miterlimit:4;stroke-opacity:1;stroke-dasharray:none;stroke-dashoffset:0"
         id="path4899"
         sodipodi:cx="1160.6653"
         sodipodi:cy="250.47191"
         sodipodi:rx="150.51273"
         sodipodi:ry="150.51273"
         d="m 1311.178,250.47191 c 0,83.12588 -67.3868,150.51272 -150.5127,150.51272 -83.1259,0 -150.5127,-67.38684 -150.5127,-150.51272 0,-83.12588 67.3868,-150.512727 150.5127,-150.512727 83.1259,0 150.5127,67.386847 150.5127,150.512727 z"
         transform="matrix(0.82779164,0,0,0.82779164,448.3738,295.51636)" />
      <text
         transform="scale(0.93717497,1.0670366)"
         xml:space="preserve"
         style="font-size:283.43414307px;font-style:normal;font-variant:normal;font-weight:normal;font-stretch:normal;text-align:center;line-height:100%;writing-mode:lr-tb;text-anchor:middle;fill:#ffffff;fill-opacity:1;stroke:#000000;stroke-width:3.1168611;stroke-miterlimit:4;stroke-opacity:1;stroke-dasharray:none;font-family:League Gothic;-inkscape-font-specification:League Gothic"
         x="1503.7423"
         y="438.10168"
         id="text4901"
         sodipodi:linespacing="100%"><tspan
           style="stroke-width:3.1168611"
           sodipodi:role="line"
           x="1503.7423"
           y="438.10168"
           id="tspan4903">_</tspan></text>
      <path
         transform="matrix(0.47427006,0,0,0.47427006,824.41,346.12121)"
         d="m 1311.178,250.47191 c 0,83.12588 -67.3868,150.51272 -150.5127,150.51272 -83.1259,0 -150.5127,-67.38684 -150.5127,-150.51272 0,-83.12588 67.3868,-150.512727 150.5127,-150.512727 83.1259,0 150.5127,67.386847 150.5127,150.512727 z"
         sodipodi:ry="150.51273"
         sodipodi:rx="150.51273"
         sodipodi:cy="250.47191"
         sodipodi:cx="1160.6653"
         id="path4907"
         style="fill:#ffffff;fill-opacity:0.42745098;stroke:none"
         sodipodi:type="arc" />
    </g>
    <g
       id="g5136"
       transform="translate(-21.213203,-11.111678)">
      <path
         transform="matrix(0.82779164,0,0,0.82779164,180.68338,482.94943)"
         d="m 1311.178,250.47191 c 0,83.12588 -67.3868,150.51272 -150.5127,150.51272 -83.1259,0 -150.5127,-67.38684 -150.5127,-150.51272 0,-83.12588 67.3868,-150.512727 150.5127,-150.512727 83.1259,0 150.5127,67.386847 150.5127,150.512727 z"
         sodipodi:ry="150.51273"
         sodipodi:rx="150.51273"
         sodipodi:cy="250.47191"
         sodipodi:cx="1160.6653"
         id="path4911"
         style="fill:#1abc9c;fill-opacity:1;stroke:#10705d;stroke-width:4;stroke-linecap:round;stroke-linejoin:round;stroke-miterlimit:4;stroke-opacity:1;stroke-dasharray:none;stroke-dashoffset:0"
         sodipodi:type="arc" />
      <text
         transform="scale(1.3920248,0.718378)"
         sodipodi:linespacing="100%"
         id="text4913"
         y="1027.1764"
         x="820.09814"
         style="font-size:242.33750916px;font-style:normal;font-variant:normal;font-weight:normal;font-stretch:normal;text-align:center;line-height:100%;writing-mode:lr-tb;text-anchor:middle;fill:#ffffff;fill-opacity:1;stroke:#000000;stroke-width:3.21756268;stroke-miterlimit:4;stroke-opacity:1;stroke-dasharray:none;font-family:League Gothic;-inkscape-font-specification:League Gothic"
         xml:space="preserve"><tspan
           style="stroke-width:3.21756268"
           id="tspan4915"
           y="1027.1764"
           x="820.09814"
           sodipodi:role="line">x<tspan
   id="tspan4917"
   style="fill:#ffffff;fill-opacity:1;stroke:#000000;stroke-width:3.21756268;stroke-miterlimit:4;stroke-opacity:1;stroke-dasharray:none"
   y="1027.1764"
   x="820.09814" /></tspan></text>
      <path
         sodipodi:type="arc"
         style="fill:#ffffff;fill-opacity:0.42745098;stroke:none"
         id="path4919"
         sodipodi:cx="1160.6653"
         sodipodi:cy="250.47191"
         sodipodi:rx="150.51273"
         sodipodi:ry="150.51273"
         d="m 1311.178,250.47191 c 0,83.12588 -67.3868,150.51272 -150.5127,150.51272 -83.1259,0 -150.5127,-67.38684 -150.5127,-150.51272 0,-83.12588 67.3868,-150.512727 150.5127,-150.512727 83.1259,0 150.5127,67.386847 150.5127,150.512727 z"
         transform="matrix(0.47427006,0,0,0.47427006,556.71958,533.55428)" />
    </g>
    <g
       id="g5143"
       transform="translate(17.172593,-6.0609153)">
      <path
         sodipodi:type="arc"
         style="fill:#1abc9c;fill-opacity:1;stroke:#10705d;stroke-width:4;stroke-linecap:round;stroke-linejoin:round;stroke-miterlimit:4;stroke-opacity:1;stroke-dasharray:none;stroke-dashoffset:0"
         id="path4923"
         sodipodi:cx="1160.6653"
         sodipodi:cy="250.47191"
         sodipodi:rx="150.51273"
         sodipodi:ry="150.51273"
         d="m 1311.178,250.47191 c 0,83.12588 -67.3868,150.51272 -150.5127,150.51272 -83.1259,0 -150.5127,-67.38684 -150.5127,-150.51272 0,-83.12588 67.3868,-150.512727 150.5127,-150.512727 83.1259,0 150.5127,67.386847 150.5127,150.512727 z"
         transform="matrix(0.82779164,0,0,0.82779164,448.3738,670.38248)" />
      <text
         transform="scale(1.2726712,0.78574891)"
         xml:space="preserve"
         style="font-size:203.72192383px;font-style:normal;font-variant:normal;font-weight:normal;font-stretch:normal;text-align:center;line-height:100%;writing-mode:lr-tb;text-anchor:middle;fill:#ffffff;fill-opacity:1;stroke:#000000;stroke-width:3.06385136;stroke-miterlimit:4;stroke-opacity:1;stroke-dasharray:none;font-family:League Gothic;-inkscape-font-specification:League Gothic"
         x="1107.204"
         y="1180.2836"
         id="text4925"
         sodipodi:linespacing="100%"><tspan
           style="stroke-width:3.06385136"
           sodipodi:role="line"
           x="1107.204"
           y="1180.2836"
           id="tspan4927">/<tspan
   x="1107.204"
   y="1180.2836"
   style="fill:#ffffff;fill-opacity:1;stroke:#000000;stroke-width:3.06385136;stroke-miterlimit:4;stroke-opacity:1;stroke-dasharray:none"
   id="tspan4929" /></tspan></text>
      <path
         transform="matrix(0.47427006,0,0,0.47427006,824.41,720.98733)"
         d="m 1311.178,250.47191 c 0,83.12588 -67.3868,150.51272 -150.5127,150.51272 -83.1259,0 -150.5127,-67.38684 -150.5127,-150.51272 0,-83.12588 67.3868,-150.512727 150.5127,-150.512727 83.1259,0 150.5127,67.386847 150.5127,150.512727 z"
         sodipodi:ry="150.51273"
         sodipodi:rx="150.51273"
         sodipodi:cy="250.47191"
         sodipodi:cx="1160.6653"
         id="path4931"
         style="fill:#ffffff;fill-opacity:0.42745098;stroke:none"
         sodipodi:type="arc" />
    </g>
    <path
       style="fill:#ffffff;fill-opacity:1;stroke:#000000;stroke-width:3.35488272;stroke-linejoin:bevel;stroke-miterlimit:4;stroke-opacity:1"
       d="m 261.34691,505.40967 347.90684,-93.22135 c 0,0 34.80594,322.48912 71.19391,360.96653 L 386.56795,852.99071 C 401.87513,799.16886 261.34691,505.40967 261.34691,505.40967 z"
       id="rect4996"
       inkscape:connector-curvature="0"
       sodipodi:nodetypes="ccccc" />
    <path
       sodipodi:type="arc"
       style="fill:#ffffff;fill-opacity:1;stroke:#000000;stroke-width:4;stroke-linecap:round;stroke-linejoin:round;stroke-miterlimit:4;stroke-opacity:1;stroke-dasharray:none;stroke-dashoffset:0"
       id="path4999"
       sodipodi:cx="338.90619"
       sodipodi:cy="228.75363"
       sodipodi:rx="96.469566"
       sodipodi:ry="96.469566"
       d="m 338.90619,325.2232 a 96.469566,96.469566 0 1 1 96.46957,-96.46957"
       transform="matrix(0.8112185,-0.21736535,0.21736535,0.8112185,-22.692554,397.09574)"
       sodipodi:start="1.5707963"
       sodipodi:end="6.2831853"
       sodipodi:open="true" />
    <path
       transform="matrix(0.8112185,-0.21736535,0.21736535,0.8112185,247.42746,325.15645)"
       sodipodi:type="arc"
       style="fill:#ffffff;fill-opacity:1;stroke:#000000;stroke-width:4;stroke-linecap:round;stroke-linejoin:round;stroke-miterlimit:4;stroke-opacity:1;stroke-dasharray:none;stroke-dashoffset:0"
       id="path4999-9"
       sodipodi:cx="338.90619"
       sodipodi:cy="228.75363"
       sodipodi:rx="96.469566"
       sodipodi:ry="96.469566"
       d="m 242.43662,228.75363 a 96.469566,96.469566 0 1 1 96.46957,96.46957"
       sodipodi:start="3.1415927"
       sodipodi:end="7.8539816"
       sodipodi:open="true" />
    <path
       transform="matrix(1.1946764,-0.32011258,0.30318646,1.1315073,-44.402455,326.19766)"
       sodipodi:type="arc"
       style="fill:#ffffff;fill-opacity:1;stroke:#000000;stroke-width:2.79089856;stroke-linecap:round;stroke-linejoin:round;stroke-miterlimit:4;stroke-opacity:1;stroke-dasharray:none;stroke-dashoffset:0"
       id="path4999-4"
       sodipodi:cx="338.90619"
       sodipodi:cy="228.75363"
       sodipodi:rx="96.469566"
       sodipodi:ry="96.469566"
       d="m 242.43662,228.75363 a 96.469566,96.469566 0 0 1 192.93914,0"
       sodipodi:start="3.1415927"
       sodipodi:end="6.2831853"
       sodipodi:open="true" />
    <path
       transform="matrix(1.6274712,0,0,1.6274712,-1538.0407,87.410202)"
       d="m 1311.178,250.47191 a 150.51273,150.51273 0 1 1 -301.0254,0 150.51273,150.51273 0 1 1 301.0254,0 z"
       sodipodi:ry="150.51273"
       sodipodi:rx="150.51273"
       sodipodi:cy="250.47191"
       sodipodi:cx="1160.6653"
       id="path4919-4"
       style="fill:#ffffff;fill-opacity:0.42745098;stroke:none;filter:url(#filter5035)"
       sodipodi:type="arc" />
    <g
       id="g5119">
      <path
         transform="matrix(0.96116859,-0.25754435,0.25885756,0.96606956,-83.778386,347.13374)"
         d="m 631.42859,610.71429 a 152.85715,32.142857 0 1 1 -305.7143,0 152.85715,32.142857 0 1 1 305.7143,0 z"
         sodipodi:ry="32.142857"
         sodipodi:rx="152.85715"
         sodipodi:cy="610.71429"
         sodipodi:cx="478.57144"
         id="path5026"
         style="fill:#ffffff;fill-opacity:1;stroke:#000000;stroke-width:4;stroke-linecap:round;stroke-linejoin:round;stroke-miterlimit:4;stroke-opacity:1;stroke-dasharray:none;stroke-dashoffset:0"
         sodipodi:type="arc" />
      <path
         sodipodi:type="arc"
         style="fill:url(#linearGradient5117);fill-opacity:1;stroke:none"
         id="path5091"
         sodipodi:cx="478.57144"
         sodipodi:cy="610.71429"
         sodipodi:rx="152.85715"
         sodipodi:ry="32.142857"
         d="m 631.42859,610.71429 a 152.85715,32.142857 0 1 1 -305.7143,0 152.85715,32.142857 0 1 1 305.7143,0 z"
         transform="matrix(0.94287813,-0.2648425,0.28624618,0.86092763,-92.823147,413.94526)" />
    </g>
  </g>
</svg>
